<?xml version="1.0" encoding="UTF-8" standalone="no"?>
<!-- Created with Inkscape (http://www.inkscape.org/) -->

<svg
   width="70.587891"
   height="23.572266"
   viewBox="0 0 18.676379 6.2368285"
   version="1.1"
   id="svg1"
   inkscape:version="1.4.2 (f4327f4, 2025-05-13)"
   sodipodi:docname="everything.svg"
   xml:space="preserve"
   xmlns:inkscape="http://www.inkscape.org/namespaces/inkscape"
   xmlns:sodipodi="http://sodipodi.sourceforge.net/DTD/sodipodi-0.dtd"
   xmlns="http://www.w3.org/2000/svg"
   xmlns:svg="http://www.w3.org/2000/svg"><sodipodi:namedview
     id="namedview1"
     pagecolor="#ffffff"
     bordercolor="#111111"
     borderopacity="1"
     inkscape:showpageshadow="0"
     inkscape:pageopacity="0"
     inkscape:pagecheckerboard="1"
     inkscape:deskcolor="#d1d1d1"
     inkscape:document-units="px"
     inkscape:zoom="7.2407737"
     inkscape:cx="-5177.5544"
     inkscape:cy="6072.3483"
     inkscape:window-width="2560"
     inkscape:window-height="1369"
     inkscape:window-x="2552"
     inkscape:window-y="-8"
     inkscape:window-maximized="1"
     inkscape:current-layer="layer1"
     showguides="true"><inkscape:page
       x="-2.0745309e-14"
       y="0"
       width="18.676378"
       height="6.2368283"
       id="page2"
       margin="0"
       bleed="0" /></sodipodi:namedview><defs
     id="defs1"><linearGradient
       id="swatch67"
       inkscape:swatch="solid"><stop
         style="stop-color:#dc6161;stop-opacity:1;"
         offset="0"
         id="stop67" /></linearGradient><linearGradient
       id="swatch1"
       inkscape:swatch="solid"><stop
         style="stop-color:#6c2020;stop-opacity:1;"
         offset="0"
         id="stop1" /></linearGradient><linearGradient
       id="swatch4"
       inkscape:swatch="solid"><stop
         style="stop-color:#ffffff;stop-opacity:1;"
         offset="0"
         id="stop4" /></linearGradient></defs><g
     inkscape:label="Laag 1"
     inkscape:groupmode="layer"
     id="layer1"
     transform="translate(1379.7445,-1612.4046)"><path
       id="path22"
       style="fill:#ffffff;fill-opacity:1;stroke-width:0.250282;stroke-linecap:round;paint-order:stroke fill markers"
       d="m -1356.013,1610.2035 c -0.5431,0.014 -1.0385,0.7099 -0.938,1.2185 v 0 c 0.5422,1.5167 0.4903,3.1274 0.2201,4.5377 -0.5909,2.1475 -1.806,3.8308 -1.806,3.8308 0,0 -1.5859,2.3512 -2.5296,3.5383 -0.9437,1.1871 -1.2258,1.4955 -1.2258,1.4955 0,0 0.3473,0.042 1.0837,-0.339 0.24,-0.1243 0.6121,-0.3585 0.8485,-0.4909 0.059,-0.033 0.1184,-0.066 0.1793,-0.1 -0.2144,0.3773 -0.427,0.7343 -0.6278,1.0454 -1.1282,1.7477 -3.4587,3.206 -3.4587,3.206 0,0 3.0677,-0.7939 4.5278,-1.8779 0.6205,-0.4607 1.3214,-0.954 1.9999,-1.5689 -0.2076,0.505 -0.2842,0.6661 -0.2842,0.6661 0,0 0.6143,-0.2127 1.4097,-1.1266 0.7953,-0.9139 2.03,-1.8255 2.4619,-3.9 0.3649,-1.7523 0.8567,-3.6758 0.8237,-4.809 0.056,-0.3894 0.057,-0.7249 -0.017,-0.9886 -0.2418,-0.8612 -0.5141,-2.4238 -0.9023,-3.3776 -0.2118,-0.5202 -1.085,-0.9175 -1.6645,-0.956 -0.015,-9e-4 -0.029,0 -0.044,0 -0.018,-10e-4 -0.035,0 -0.053,-10e-4 z"
       inkscape:export-filename="slash_effect.svg"
       inkscape:export-xdpi="96"
       inkscape:export-ydpi="96" /><g
       id="g28"><g
         id="g27"><rect
           style="fill:#6b4f3a;stroke-width:0.415214;stroke-linecap:round;paint-order:stroke fill markers"
           id="rect14"
           width="17.316143"
           height="1.6776478"
           x="-1379.7445"
           y="1614.8489"
           ry="0.62044358" /><path
           id="rect15"
           style="fill:#36383e;fill-opacity:1;stroke-width:0.317359;stroke-linecap:round;paint-order:stroke fill markers"
           d="m -1363.7888,1612.4047 v 6.2368 h 2.7208 v -4.717 l -1.5198,-1.5198 z" /></g><ellipse
         style="fill:#762121;fill-opacity:1;stroke-width:0.480983;stroke-linecap:round;paint-order:stroke fill markers"
         id="ellipse11"
         cx="-1376.5723"
         cy="1615.6875"
         rx="1.9784474"
         ry="2.0670571" /></g></g></svg>
