<?xml version="1.0" encoding="UTF-8" standalone="no"?>
<!-- Created with Inkscape (http://www.inkscape.org/) -->

<svg
   width="669.95209"
   height="2418.4277"
   viewBox="0 0 177.25816 639.87566"
   version="1.1"
   id="svg1"
   inkscape:version="1.4.2 (f4327f4, 2025-05-13)"
   sodipodi:docname="everything.svg"
   xml:space="preserve"
   xmlns:inkscape="http://www.inkscape.org/namespaces/inkscape"
   xmlns:sodipodi="http://sodipodi.sourceforge.net/DTD/sodipodi-0.dtd"
   xmlns="http://www.w3.org/2000/svg"
   xmlns:svg="http://www.w3.org/2000/svg"><sodipodi:namedview
     id="namedview1"
     pagecolor="#ffffff"
     bordercolor="#111111"
     borderopacity="1"
     inkscape:showpageshadow="0"
     inkscape:pageopacity="0"
     inkscape:pagecheckerboard="1"
     inkscape:deskcolor="#d1d1d1"
     inkscape:document-units="px"
     inkscape:zoom="0.22627417"
     inkscape:cx="-6134.1513"
     inkscape:cy="6936.2756"
     inkscape:window-width="2560"
     inkscape:window-height="1369"
     inkscape:window-x="2552"
     inkscape:window-y="-8"
     inkscape:window-maximized="1"
     inkscape:current-layer="layer1"
     showguides="true"><inkscape:page
       x="0"
       y="0"
       width="177.25816"
       height="639.87567"
       id="page2"
       margin="0"
       bleed="0" /></sodipodi:namedview><defs
     id="defs1"><inkscape:path-effect
       effect="fillet_chamfer"
       id="path-effect24"
       is_visible="true"
       lpeversion="1"
       nodesatellites_param="F,0,0,1,0,0,0,1 @ F,0,0,1,0,0,0,1 @ F,0,0,1,0,0,0,1 @ F,0,0,1,0,0,0,1 @ F,0,0,1,0,0,0,1 @ F,0,0,1,0,0,0,1 @ F,0,0,1,0,3.7503623,0,1 @ F,0,1,1,0,3.7503623,0,1"
       radius="0"
       unit="px"
       method="auto"
       mode="F"
       chamfer_steps="1"
       flexible="false"
       use_knot_distance="true"
       apply_no_radius="true"
       apply_with_radius="true"
       only_selected="false"
       hide_knots="false" /><linearGradient
       id="swatch1"
       inkscape:swatch="solid"><stop
         style="stop-color:#6c2020;stop-opacity:1;"
         offset="0"
         id="stop1" /></linearGradient><linearGradient
       id="swatch4"
       inkscape:swatch="solid"><stop
         style="stop-color:#ffffff;stop-opacity:1;"
         offset="0"
         id="stop4" /></linearGradient></defs><g
     inkscape:label="Laag 1"
     inkscape:groupmode="layer"
     id="layer1"
     transform="translate(1432.3485,-1456.8786)"><g
       id="g26"><path
         id="path14"
         style="fill:#eeba73;fill-opacity:1;stroke-width:0.427586;stroke-linecap:round;paint-order:stroke fill markers"
         d="m -1402.0192,1491.3008 a 59.865115,59.865115 0 0 0 -1.5652,13.5989 59.865115,59.865115 0 0 0 59.8651,59.8654 59.865115,59.865115 0 0 0 59.8649,-59.8654 59.865115,59.865115 0 0 0 -1.5651,-13.5989 z" /><rect
         style="fill:#762121;fill-opacity:1;stroke-width:0.529167;stroke-linecap:round;paint-order:stroke fill markers"
         id="rect14"
         width="24.718866"
         height="220.99849"
         x="-1403.5845"
         y="1875.7557" /><rect
         style="fill:#762121;fill-opacity:1;stroke-width:0.529167;stroke-linecap:round;paint-order:stroke fill markers"
         id="rect15"
         width="24.718866"
         height="220.99849"
         x="-1308.5732"
         y="1875.7557" /><rect
         style="fill:#000000;fill-opacity:1;stroke-width:1.1062;stroke-linecap:round;paint-order:stroke fill markers"
         id="rect16"
         width="19.503994"
         height="6.2463088"
         x="-1353.4714"
         y="1536.7312" /><path
         id="rect17"
         style="fill:#762121;fill-opacity:1;stroke-width:0.43401;stroke-linecap:round;paint-order:stroke fill markers"
         d="m -1432.3485,1568.3523 3.5405,295.8341 h 170.1772 l 3.5405,-295.8341 h -61.3673 c 6e-4,5.8504 -12.2052,10.5931 -27.2618,10.5931 -15.0567,0 -27.2624,-4.7427 -27.2618,-10.5931 z" /><g
         id="g19"
         transform="translate(0.47886651,-1.4469364)"><rect
           style="fill:#000000;fill-opacity:1;stroke-width:0.935433;stroke-linecap:round;paint-order:stroke fill markers"
           id="rect18"
           width="9.7520266"
           height="8.933259"
           x="-1329.8088"
           y="-1521.3302"
           transform="scale(1,-1)" /><rect
           style="fill:#000000;fill-opacity:1;stroke-width:0.935433;stroke-linecap:round;paint-order:stroke fill markers"
           id="rect19"
           width="9.7520266"
           height="8.933259"
           x="-1368.3397"
           y="-1521.3302"
           transform="scale(1,-1)" /></g><rect
         style="fill:#000000;fill-opacity:1;stroke-width:0.729022;stroke-linecap:round;paint-order:stroke fill markers"
         id="rect20"
         width="15.923"
         height="3.3230484"
         x="-1256.8649"
         y="1601.8104"
         transform="rotate(4.2)" /><rect
         style="fill:#000000;fill-opacity:1;stroke-width:0.729022;stroke-linecap:round;paint-order:stroke fill markers"
         id="rect21"
         width="15.923"
         height="3.3230484"
         x="-1439.2797"
         y="1404.9873"
         transform="rotate(-4.2)" /><path
         id="rect22"
         style="fill:#762121;fill-opacity:1;stroke-width:0.392263;stroke-linecap:round;paint-order:stroke fill markers"
         d="m -1324.4539,1456.8786 c -28.8903,0 -74.7848,13.3269 -79.956,17.6076 -1.6825,1.2513 -2.8367,3.055 -3.2861,5.0607 -1.1838,1.495 -4.7982,5.4574 -5.5454,7.7716 -0.069,0.2145 0.081,0.3953 0.3075,0.3953 h 7.9835 116.7 a 3.7503623,3.7503623 135 0 0 3.7504,-3.7504 v -9.54 c 0,-2.0713 -0.1425,-5.5437 -1.3511,-7.1852 -3.3417,-4.5385 -13.6061,-10.3596 -38.6028,-10.3596 z"
         sodipodi:nodetypes="sccsscccs"
         inkscape:path-effect="#path-effect24"
         inkscape:original-d="m -1324.4539,1456.8786 c -28.8903,0 -74.7848,13.3269 -79.956,17.6076 -1.6825,1.2513 -2.8367,3.055 -3.2861,5.0607 -1.1838,1.495 -4.7982,5.4574 -5.5454,7.7716 -0.069,0.2145 0.081,0.3953 0.3075,0.3953 h 7.9835 120.4504 v -17.0408 c 5e-4,-4.1338 -7.752,-13.7944 -39.9539,-13.7944 z" /><path
         id="rect23"
         style="fill:#b25252;fill-opacity:1;stroke-width:0.37017;stroke-linecap:round;paint-order:stroke fill markers"
         d="m -1405.1638,1475.1161 c -1.2261,1.1486 -2.0866,2.6243 -2.4872,4.2401 h 123.151 v -4.2401 z"
         sodipodi:nodetypes="ccccc" /><path
         id="path24"
         style="fill:#b25252;fill-opacity:1;stroke-width:0.31913;stroke-linecap:round;paint-order:stroke fill markers"
         inkscape:transform-center-x="3.8545411e-06"
         inkscape:transform-center-y="12.228337"
         d="m -1379.5034,1568.3523 32.474,66.5831 v 222.7455 l -9.5266,6.5056 h 25.6729 l -9.526,-6.5051 v -222.746 h -5e-4 l 32.474,-66.5831 h -8.522 c 5e-4,5.8504 -12.2053,10.5931 -27.2619,10.5931 -15.0567,0 -27.2625,-4.7427 -27.2619,-10.5931 z" /></g></g></svg>
