<?xml version="1.0" encoding="UTF-8" standalone="no"?>
<!-- Created with Inkscape (http://www.inkscape.org/) -->

<svg
   width="51.251953"
   height="15.624999"
   viewBox="0 0 13.560413 4.1341142"
   version="1.1"
   id="svg1"
   inkscape:version="1.4.2 (f4327f4, 2025-05-13)"
   sodipodi:docname="everything.svg"
   xml:space="preserve"
   xmlns:inkscape="http://www.inkscape.org/namespaces/inkscape"
   xmlns:sodipodi="http://sodipodi.sourceforge.net/DTD/sodipodi-0.dtd"
   xmlns="http://www.w3.org/2000/svg"
   xmlns:svg="http://www.w3.org/2000/svg"><sodipodi:namedview
     id="namedview1"
     pagecolor="#ffffff"
     bordercolor="#111111"
     borderopacity="1"
     inkscape:showpageshadow="0"
     inkscape:pageopacity="0"
     inkscape:pagecheckerboard="1"
     inkscape:deskcolor="#d1d1d1"
     inkscape:document-units="px"
     inkscape:zoom="57.92619"
     inkscape:cx="-5235.1881"
     inkscape:cy="5897.2721"
     inkscape:window-width="2560"
     inkscape:window-height="1369"
     inkscape:window-x="2552"
     inkscape:window-y="-8"
     inkscape:window-maximized="1"
     inkscape:current-layer="layer1"
     showguides="true"><inkscape:page
       x="-3.220937e-14"
       y="0"
       width="13.560413"
       height="4.1341143"
       id="page2"
       margin="0"
       bleed="0" /></sodipodi:namedview><defs
     id="defs1"><linearGradient
       id="swatch1"
       inkscape:swatch="solid"><stop
         style="stop-color:#6c2020;stop-opacity:1;"
         offset="0"
         id="stop1" /></linearGradient><linearGradient
       id="swatch4"
       inkscape:swatch="solid"><stop
         style="stop-color:#ffffff;stop-opacity:1;"
         offset="0"
         id="stop4" /></linearGradient></defs><g
     inkscape:label="Laag 1"
     inkscape:groupmode="layer"
     id="layer1"
     transform="translate(1379.5644,-1582.8394)"><g
       id="g15"><path
         d="m -1366.2591,1584.2993 c 0.5184,0.5184 0.2483,1.5299 -0.8284,1.5134 -0.267,0 -4.2209,-0.1368 -7.7256,-0.1839 l -0.013,-1.3251 c 3.37,-0.1085 7.2049,-0.293 7.7125,-0.303 0.3814,-0.012 0.6653,0.1148 0.8495,0.2986 z m -8.9579,0.016 0.012,1.3078 h -0.3969 l -0.012,-1.2926 z m -0.7935,0.024 0.013,1.2777 h -0.3967 l -0.013,-1.2651 z m -0.7929,0.02 0.012,1.2537 c -0.1341,0 -0.2662,3e-4 -0.3959,6e-4 l -0.013,-1.2465 c 0.1296,0 0.2618,0 0.3965,-0.013 z m -0.7932,0.014 0.013,1.242 c -0.1358,0 -0.2677,0 -0.3964,0 l -0.012,-1.2408 c 0.1322,0 0.2641,0 0.3962,0 z m -0.7928,0.012 0.012,1.2446 c -0.2306,0 -0.445,0.012 -0.6398,0.017 -0.1332,0.012 -0.2628,-0.042 -0.3562,-0.1379 -0.3301,-0.3301 -0.2435,-1.1368 0.3453,-1.1274 0.2144,0 0.429,0 0.6434,0 z"
         fill="#ffffff"
         fill-opacity="1"
         id="path1-88"
         style="fill:#342316;fill-opacity:1;stroke-width:0.0293273"
         sodipodi:nodetypes="sscccsccccccccccccccccccccccccsc" /><ellipse
         style="fill:#2c4a7c;fill-opacity:1;stroke-width:0.480983;stroke-linecap:round;paint-order:stroke fill markers"
         id="path10"
         cx="-1376.5723"
         cy="1584.9064"
         rx="1.9784474"
         ry="2.0670571" /></g></g></svg>
